<svg width="336" height="336" viewBox="0 0 336 336" fill="none" xmlns="http://www.w3.org/2000/svg">
<path d="M77.3367 289.131C133.324 319.011 224.098 319.011 280.085 289.131C336.073 259.25 336.081 210.788 280.085 180.907C224.09 151.026 133.324 151.018 77.3367 180.907C21.3496 210.796 21.3496 259.242 77.3367 289.131Z" fill="#EBEBEB"/>
<path d="M296.546 214.991L288.379 210.243C288.379 210.243 286.377 192.746 287.706 179.199C289.582 160.151 301.879 137.258 316.543 142.623C331.206 147.988 309.808 167.431 305.06 183.575C300.312 199.718 296.546 214.991 296.546 214.991Z" fill="#ECEFF1"/>
<path opacity="0.1" d="M296.546 214.991L288.379 210.243C288.379 210.243 286.377 192.746 287.706 179.199C289.582 160.151 301.879 137.258 316.543 142.623C331.206 147.988 309.808 167.431 305.06 183.575C300.312 199.718 296.546 214.991 296.546 214.991Z" fill="#D8D8D8"/>
<path d="M292.296 212.846C292.22 212.847 292.146 212.82 292.087 212.771C292.029 212.722 291.991 212.653 291.979 212.577C289.202 191.211 296.807 158.917 312.159 146.667C312.19 146.641 312.227 146.622 312.266 146.611C312.305 146.599 312.346 146.596 312.386 146.6C312.427 146.604 312.466 146.617 312.501 146.636C312.537 146.656 312.568 146.682 312.594 146.714C312.646 146.779 312.67 146.863 312.661 146.946C312.652 147.029 312.611 147.105 312.546 147.157C297.361 159.281 289.851 191.322 292.605 212.49C292.616 212.573 292.594 212.657 292.544 212.724C292.493 212.79 292.418 212.835 292.336 212.846H292.296Z" fill="white"/>
<path d="M300.907 218.369L295.099 215.006C295.099 215.006 294.11 203.002 299.997 188.417C305.117 175.756 317.834 165.183 324.228 167.399C330.622 169.615 330.464 174.149 327.346 178.905C324.228 183.661 305.26 195.001 300.907 218.369Z" fill="#ECEFF1"/>
<path d="M297.305 218.679C297.263 218.677 297.223 218.667 297.186 218.649C297.148 218.631 297.115 218.606 297.088 218.575C297.061 218.544 297.04 218.508 297.027 218.469C297.014 218.429 297.009 218.388 297.012 218.347C298.927 188.466 314.041 173.771 323.126 171.531C323.208 171.512 323.294 171.525 323.366 171.568C323.439 171.61 323.491 171.68 323.514 171.761C323.533 171.841 323.52 171.926 323.477 171.998C323.434 172.069 323.365 172.12 323.284 172.141C313.717 174.515 299.441 190.42 297.653 218.386C297.65 218.429 297.638 218.47 297.619 218.508C297.6 218.546 297.573 218.579 297.541 218.607C297.508 218.634 297.471 218.654 297.43 218.667C297.389 218.679 297.347 218.683 297.305 218.679Z" fill="white"/>
<path d="M61.3282 217.317C61.3282 217.317 62.4123 199.773 52.2199 187.744C42.0275 175.716 28.7567 175.764 24.3648 178.003C19.9729 180.243 17.0212 186.644 24.5785 191.226C32.1357 195.808 48.2078 204.98 50.8825 213.162L61.3282 217.317Z" fill="#ECEFF1"/>
<path opacity="0.1" d="M61.3282 217.317C61.3282 217.317 62.4123 199.773 52.2199 187.744C42.0275 175.716 28.7567 175.764 24.3648 178.003C19.9729 180.243 17.0212 186.644 24.5785 191.226C32.1357 195.808 48.2078 204.98 50.8825 213.162L61.3282 217.317Z" fill="#D8D8D8"/>
<path d="M56.5344 212.926C56.4365 212.925 56.3424 212.888 56.2696 212.823C56.1968 212.757 56.1503 212.667 56.1388 212.57C54.0417 193.158 34.6381 182.404 26.9067 181.186C26.8548 181.178 26.8049 181.16 26.7598 181.133C26.7148 181.106 26.6756 181.07 26.6443 181.028C26.6131 180.985 26.5905 180.937 26.5778 180.886C26.5651 180.835 26.5626 180.782 26.5704 180.731C26.5782 180.679 26.5962 180.629 26.6232 180.584C26.6503 180.539 26.686 180.499 26.7283 180.468C26.7705 180.437 26.8185 180.414 26.8695 180.402C26.9205 180.389 26.9735 180.386 27.0254 180.394C34.9388 181.637 54.7777 192.636 56.9301 212.483C56.9356 212.535 56.9307 212.588 56.9157 212.638C56.9007 212.688 56.8759 212.734 56.8428 212.775C56.8097 212.815 56.7689 212.849 56.7228 212.873C56.6766 212.898 56.626 212.913 56.574 212.918L56.5344 212.926Z" fill="white"/>
<path d="M52.7593 208.469C50.2033 202.645 47.3149 200.034 39.0059 201.426C30.6968 202.819 31.8838 202.606 21.7151 200.002C17.4261 198.91 12.6068 198.736 8.49188 200.588C5.01791 202.17 2.42232 205.336 5.78551 208.707C9.5681 212.473 15.2103 213.763 19.3886 217.079C20.3365 217.749 21.09 218.658 21.5727 219.714C22.6727 222.516 20.4727 225.673 21.1137 228.609C21.7547 231.545 24.8409 233.112 27.7372 233.302C30.6335 233.491 33.4903 232.621 36.3786 232.289C39.267 231.956 42.5115 232.289 44.5057 234.433C46.6423 236.704 46.6977 240.337 48.6839 242.75C51.6594 246.367 58.9713 247.372 62.928 245.124L73.2866 239.15C80.1317 229.923 69.3299 222.611 63.6719 215.449C60.9259 211.959 54.2945 211.975 52.7593 208.469Z" fill="#ECEFF1"/>
<path d="M66.8694 233.579C66.802 233.581 66.7355 233.564 66.6769 233.53C66.6184 233.497 66.57 233.448 66.5371 233.389C54.7224 214.247 22.5545 204.561 11.175 203.77C11.0715 203.761 10.9752 203.713 10.9071 203.634C10.839 203.556 10.8045 203.454 10.811 203.35C10.8191 203.246 10.8674 203.149 10.9456 203.079C11.0239 203.01 11.126 202.974 11.2304 202.978C22.7602 203.77 55.2367 213.598 67.2097 232.994C67.2627 233.084 67.2783 233.192 67.2532 233.294C67.2281 233.396 67.1642 233.484 67.0752 233.54C67.0105 233.568 66.9401 233.582 66.8694 233.579Z" fill="white"/>
<path d="M29.4452 224.559C29.3836 224.56 29.3226 224.546 29.2674 224.519C29.2123 224.491 29.1646 224.45 29.1287 224.4C29.0657 224.316 29.0387 224.211 29.0535 224.107C29.0684 224.003 29.1239 223.909 29.2078 223.846C29.6193 223.538 39.4319 216.337 48.9913 216.194C49.0429 216.193 49.0941 216.202 49.1421 216.221C49.1901 216.24 49.2337 216.269 49.2706 216.305C49.3074 216.341 49.3367 216.384 49.3567 216.432C49.3767 216.479 49.387 216.53 49.387 216.582C49.388 216.634 49.3788 216.685 49.3599 216.734C49.341 216.782 49.3127 216.826 49.2767 216.864C49.2407 216.901 49.1976 216.931 49.15 216.952C49.1024 216.973 49.0512 216.984 48.9992 216.985C39.7168 217.12 29.8013 224.408 29.6985 224.479C29.627 224.537 29.5366 224.565 29.4452 224.559Z" fill="white"/>
<path d="M66.1369 240.304C66.2215 241.454 66.5757 242.569 67.171 243.558C67.7663 244.546 68.5858 245.38 69.5634 245.993L165.576 301.427C166.638 301.965 167.812 302.246 169.003 302.246C170.194 302.246 171.368 301.965 172.429 301.427L303.792 225.577C304.827 225.03 305.694 224.212 306.298 223.209C306.903 222.206 307.222 221.058 307.222 219.887C307.222 218.716 306.903 217.568 306.298 216.565C305.694 215.563 304.827 214.744 303.792 214.197L207.786 158.804C206.725 158.265 205.551 157.984 204.36 157.984C203.169 157.984 201.995 158.265 200.933 158.804L69.5634 234.63C68.5879 235.241 67.7696 236.073 67.1744 237.059C66.5793 238.044 66.2239 239.156 66.1369 240.304Z" fill="#D8D8D8"/>
<path d="M105.751 213.724L69.5633 234.631C68.5279 235.177 67.6613 235.996 67.0567 236.998C66.4522 238.001 66.1328 239.15 66.1328 240.32C66.1328 241.491 66.4522 242.64 67.0567 243.642C67.6613 244.645 68.5279 245.464 69.5633 246.01L165.576 301.443C166.632 301.995 167.812 302.267 169.003 302.235V213.724H105.751Z" fill="#B8B8B8"/>
<path d="M62.9164 234.741C61.9627 234.091 61.1751 233.226 60.617 232.216C60.0589 231.205 59.7461 230.078 59.7036 228.925V114.347C59.7673 113.158 60.1108 112 60.7062 110.969C61.3016 109.938 62.1321 109.062 63.13 108.412L194.492 32.5621C195.484 31.9401 196.626 31.6001 197.796 31.5786C198.967 31.557 200.121 31.8547 201.134 32.4397C202.148 33.0247 202.983 33.8749 203.55 34.8989C204.117 35.923 204.395 37.0821 204.352 38.2518V152.838C204.287 154.026 203.943 155.183 203.348 156.214C202.753 157.245 201.923 158.122 200.926 158.773L69.5636 234.63C68.542 235.169 67.408 235.46 66.2532 235.479C65.0984 235.498 63.9553 235.245 62.9164 234.741Z" fill="#D8D8D8"/>
<path d="M75.7832 119.672L60.7082 110.967C60.1078 111.994 59.7783 113.157 59.7507 114.346V228.924C59.7932 230.078 60.1061 231.205 60.6641 232.215C61.2222 233.225 62.0098 234.091 62.9635 234.741C64.0027 235.241 65.145 235.491 66.2982 235.469C67.4515 235.447 68.5835 235.154 69.6028 234.614L84.5908 225.965L75.7832 119.672Z" fill="#B8B8B8"/>
<path d="M66.1369 118.066V232.636C66.1369 234.82 67.6721 235.706 69.5634 234.614L200.926 158.772C201.923 158.122 202.752 157.245 203.348 156.214C203.943 155.183 204.287 154.026 204.352 152.837V38.2594C204.352 36.0753 202.817 35.189 200.926 36.281L69.5634 112.131C68.5655 112.781 67.735 113.657 67.1396 114.688C66.5442 115.719 66.2006 116.877 66.1369 118.066Z" fill="#D8D8D8"/>
<path d="M69.5635 238.587L165.577 293.981C166.638 294.519 167.812 294.8 169.003 294.8C170.194 294.8 171.368 294.519 172.43 293.981L303.792 218.131C305.691 217.039 305.691 215.266 303.792 214.174L207.787 158.781C206.725 158.242 205.551 157.961 204.36 157.961C203.169 157.961 201.995 158.242 200.934 158.781L69.5635 234.63C67.6643 235.707 67.6643 237.479 69.5635 238.587Z" fill="#D8D8D8"/>
<path d="M71.4073 118.486L199.09 44.7731C200.221 44.1163 201.147 44.6465 201.147 45.9601V145.139C201.107 145.852 200.9 146.546 200.543 147.164C200.185 147.783 199.688 148.309 199.09 148.7L71.4073 222.413C70.2678 223.069 69.3498 222.539 69.3498 221.226V122.047C69.3879 121.334 69.5941 120.639 69.9516 120.02C70.3092 119.401 70.808 118.876 71.4073 118.486Z" fill="white"/>
<path d="M80.7061 235.604L202.643 165.175C203.174 164.906 203.761 164.766 204.357 164.766C204.952 164.766 205.539 164.906 206.07 165.175L212.314 168.776C212.52 168.846 212.7 168.979 212.827 169.156C212.954 169.334 213.022 169.547 213.022 169.765C213.022 169.983 212.954 170.196 212.827 170.373C212.7 170.551 212.52 170.684 212.314 170.754L90.3525 241.175C89.8215 241.444 89.2346 241.585 88.6393 241.585C88.044 241.585 87.457 241.444 86.926 241.175L80.7061 237.583C80.4994 237.512 80.3199 237.379 80.1927 237.202C80.0656 237.024 79.9972 236.812 79.9972 236.593C79.9972 236.375 80.0656 236.162 80.1927 235.985C80.3199 235.807 80.4994 235.674 80.7061 235.604Z" fill="#B8B8B8"/>
<path d="M96.7871 244.917L218.716 174.488C219.249 174.219 219.837 174.079 220.434 174.079C221.03 174.079 221.618 174.219 222.151 174.488L260.507 196.646C260.714 196.716 260.893 196.849 261.02 197.026C261.148 197.204 261.216 197.416 261.216 197.635C261.216 197.853 261.148 198.066 261.02 198.243C260.893 198.421 260.714 198.554 260.507 198.624L138.712 268.911C138.18 269.18 137.592 269.32 136.995 269.32C136.398 269.32 135.81 269.18 135.278 268.911L96.7871 246.856C96.5903 246.781 96.4209 246.649 96.3014 246.476C96.1818 246.302 96.1178 246.097 96.1178 245.887C96.1178 245.676 96.1818 245.471 96.3014 245.298C96.4209 245.124 96.5903 244.992 96.7871 244.917Z" fill="#B8B8B8"/>
<path d="M206.087 206.142L209.909 203.934C210.067 203.84 210.06 203.689 209.909 203.586L205.493 201.038C205.399 200.99 205.295 200.964 205.189 200.964C205.083 200.964 204.978 200.99 204.884 201.038L201.07 203.246C200.904 203.341 200.912 203.491 201.07 203.594L205.486 206.142C205.579 206.19 205.682 206.214 205.786 206.214C205.891 206.214 205.994 206.19 206.087 206.142ZM198.553 197.438L194.739 199.645C194.573 199.732 194.581 199.891 194.739 199.994L199.155 202.542C199.249 202.59 199.354 202.616 199.46 202.616C199.566 202.616 199.67 202.59 199.764 202.542L203.586 200.334C203.745 200.239 203.737 200.081 203.586 199.986L199.163 197.438C199.069 197.389 198.964 197.364 198.858 197.364C198.752 197.364 198.648 197.389 198.553 197.438ZM186.224 204.56L179.759 208.287C179.601 208.382 179.609 208.54 179.759 208.643L184.175 211.191C184.269 211.24 184.373 211.265 184.479 211.265C184.585 211.265 184.69 211.24 184.784 211.191L191.241 207.464C191.408 207.369 191.392 207.211 191.241 207.116L186.826 204.56C186.733 204.511 186.63 204.486 186.525 204.486C186.42 204.486 186.317 204.511 186.224 204.56ZM192.975 200.658L189.16 202.866C188.994 202.961 189.002 203.119 189.16 203.214L193.576 205.762C193.67 205.811 193.775 205.836 193.881 205.836C193.987 205.836 194.091 205.811 194.185 205.762L198.007 203.555C198.166 203.46 198.158 203.309 198.007 203.206L193.584 200.603C193.49 200.554 193.385 200.529 193.279 200.529C193.173 200.529 193.069 200.554 192.975 200.603V200.658ZM177.994 209.308L174.18 211.508C174.014 211.603 174.03 211.761 174.18 211.864L178.596 214.412C178.689 214.458 178.792 214.483 178.897 214.483C179.001 214.483 179.104 214.458 179.197 214.412L183.019 212.204C183.178 212.109 183.17 211.951 183.019 211.856L178.604 209.308C178.51 209.259 178.405 209.234 178.299 209.234C178.193 209.234 178.089 209.259 177.994 209.308ZM172.455 212.528L168.641 214.736C168.475 214.823 168.491 214.982 168.641 215.084L173.057 217.633C173.151 217.681 173.255 217.706 173.361 217.706C173.467 217.706 173.572 217.681 173.666 217.633L177.488 215.425C177.646 215.33 177.638 215.171 177.488 215.077L173.025 212.473C172.931 212.424 172.826 212.399 172.72 212.399C172.614 212.399 172.51 212.424 172.416 212.473L172.455 212.528ZM189.825 222.895L193.639 220.687C193.805 220.592 193.79 220.442 193.639 220.339L189.224 217.791C189.131 217.742 189.028 217.717 188.923 217.717C188.818 217.717 188.715 217.742 188.622 217.791L184.8 219.999C184.642 220.094 184.65 220.244 184.8 220.347L189.216 222.895C189.308 222.931 189.406 222.946 189.505 222.939C189.604 222.933 189.699 222.904 189.785 222.855L189.825 222.895ZM184.238 226.116L188.06 223.908C188.219 223.821 188.211 223.663 188.06 223.56L183.645 221.012C183.55 220.963 183.446 220.938 183.34 220.938C183.234 220.938 183.13 220.963 183.035 221.012L179.221 223.219C179.055 223.314 179.071 223.473 179.221 223.568L183.637 226.116C183.727 226.152 183.825 226.167 183.922 226.16C184.019 226.153 184.114 226.125 184.199 226.076L184.238 226.116ZM178.659 229.336L182.481 227.137C182.64 227.042 182.632 226.883 182.481 226.78L178.066 224.232C177.971 224.186 177.867 224.161 177.761 224.161C177.655 224.161 177.551 224.186 177.456 224.232L173.642 226.44C173.476 226.535 173.492 226.693 173.642 226.788L178.05 229.336C178.142 229.373 178.241 229.388 178.339 229.381C178.438 229.374 178.534 229.345 178.62 229.297L178.659 229.336ZM173.12 232.557L176.942 230.357C177.1 230.262 177.092 230.104 176.942 230.001L172.526 227.453C172.432 227.404 172.328 227.379 172.222 227.379C172.116 227.379 172.011 227.404 171.917 227.453L168.103 229.653C167.937 229.748 167.944 229.906 168.103 230.009L172.518 232.557C172.691 232.613 172.879 232.599 173.041 232.518L173.12 232.557ZM200.587 209.418L204.409 207.211C204.568 207.124 204.56 206.965 204.409 206.862L199.994 204.314C199.899 204.268 199.795 204.243 199.689 204.243C199.583 204.243 199.479 204.268 199.384 204.314L195.57 206.522C195.404 206.617 195.412 206.775 195.57 206.87L199.986 209.418C200.071 209.448 200.161 209.459 200.251 209.452C200.341 209.445 200.428 209.421 200.508 209.379L200.587 209.418ZM195.443 219.706L203.958 214.784C204.117 214.697 204.109 214.538 203.958 214.436L193.236 208.247C193.141 208.199 193.037 208.173 192.931 208.173C192.825 208.173 192.721 208.199 192.626 208.247L188.226 210.795C188.06 210.882 188.076 211.041 188.226 211.144L193.908 214.42C194.082 214.523 194.09 214.681 193.908 214.776L190.324 216.723C190.165 216.81 190.173 216.968 190.324 217.071L194.755 219.595C194.846 219.65 194.949 219.682 195.055 219.689C195.161 219.696 195.267 219.677 195.364 219.635L195.443 219.706ZM166.916 215.749L163.102 217.957C162.935 218.052 162.943 218.202 163.102 218.305L167.517 220.853C167.611 220.902 167.716 220.927 167.822 220.927C167.928 220.927 168.032 220.902 168.126 220.853L171.949 218.645C172.107 218.55 172.099 218.4 171.949 218.297L167.533 215.749C167.432 215.679 167.313 215.638 167.19 215.631C167.067 215.624 166.945 215.651 166.837 215.71L166.916 215.749ZM161.376 218.97L157.436 221.178C157.277 221.273 157.285 221.431 157.436 221.526L161.851 224.074C161.945 224.123 162.05 224.148 162.156 224.148C162.262 224.148 162.366 224.123 162.461 224.074L166.283 221.866C166.441 221.779 166.433 221.621 166.283 221.518L161.835 218.946C161.746 218.9 161.648 218.875 161.548 218.872C161.448 218.869 161.349 218.889 161.258 218.93L161.376 218.97ZM133.347 255.055C133.441 255.104 133.546 255.129 133.652 255.129C133.758 255.129 133.862 255.104 133.957 255.055L137.779 252.847C137.937 252.76 137.929 252.602 137.779 252.499L133.347 249.967C133.253 249.918 133.149 249.893 133.043 249.893C132.937 249.893 132.832 249.918 132.738 249.967L128.924 252.174C128.757 252.269 128.765 252.428 128.924 252.523L133.347 255.055ZM116.595 244.704L112.772 246.912C112.614 247.007 112.622 247.157 112.772 247.26L117.188 249.808C117.282 249.857 117.387 249.882 117.493 249.882C117.599 249.882 117.703 249.857 117.797 249.808L121.62 247.601C121.778 247.506 121.77 247.355 121.62 247.252L117.204 244.704C117.113 244.66 117.013 244.636 116.911 244.636C116.81 244.636 116.709 244.66 116.618 244.704H116.595ZM125.576 252.261C125.67 252.31 125.775 252.335 125.881 252.335C125.987 252.335 126.091 252.31 126.186 252.261L130 250.054C130.166 249.967 130.15 249.808 130 249.705L125.592 247.157C125.498 247.109 125.393 247.083 125.287 247.083C125.181 247.083 125.077 247.109 124.983 247.157L121.161 249.365C121.002 249.46 121.01 249.618 121.161 249.713L125.576 252.261ZM143.199 257.01L147.022 254.802C147.18 254.707 147.172 254.556 147.022 254.453L142.606 251.905C142.512 251.857 142.407 251.831 142.301 251.831C142.195 251.831 142.091 251.857 141.997 251.905L138.182 254.113C138.016 254.2 138.032 254.359 138.182 254.461L142.59 257.01C142.687 257.063 142.795 257.092 142.906 257.094C143.016 257.095 143.125 257.069 143.223 257.017L143.199 257.01ZM137.011 260.175C137.105 260.223 137.21 260.249 137.316 260.249C137.422 260.249 137.526 260.223 137.62 260.175L141.443 257.967C141.601 257.88 141.593 257.722 141.443 257.619L137.027 255.071C136.933 255.022 136.828 254.997 136.722 254.997C136.616 254.997 136.512 255.022 136.418 255.071L132.603 257.279C132.437 257.374 132.445 257.532 132.603 257.627L137.011 260.175ZM122.174 241.436L118.359 243.644C118.193 243.731 118.201 243.889 118.359 243.992L122.775 246.54C122.869 246.589 122.974 246.614 123.08 246.614C123.186 246.614 123.29 246.589 123.384 246.54L127.206 244.332C127.365 244.237 127.357 244.079 127.206 243.984L122.791 241.436C122.695 241.397 122.591 241.381 122.488 241.39C122.385 241.398 122.286 241.43 122.197 241.483L122.174 241.436ZM150.076 225.332L146.254 227.532C146.096 227.627 146.104 227.785 146.254 227.88L150.67 230.436C150.764 230.483 150.869 230.507 150.974 230.507C151.08 230.507 151.184 230.483 151.279 230.436L155.093 228.236C155.259 228.142 155.251 227.983 155.093 227.88L150.677 225.332C150.584 225.296 150.483 225.281 150.383 225.29C150.283 225.298 150.186 225.329 150.1 225.38L150.076 225.332ZM127.808 238.263L123.994 240.463C123.827 240.558 123.835 240.716 123.994 240.819L128.409 243.367C128.504 243.414 128.608 243.438 128.714 243.438C128.82 243.438 128.924 243.414 129.019 243.367L132.841 241.159C132.999 241.064 132.991 240.906 132.841 240.811L128.425 238.255C128.329 238.208 128.223 238.184 128.116 238.186C128.008 238.187 127.903 238.213 127.808 238.263ZM155.71 222.151L151.857 224.343C151.698 224.438 151.706 224.596 151.857 224.691L156.272 227.239C156.366 227.288 156.471 227.313 156.577 227.313C156.683 227.313 156.787 227.288 156.882 227.239L160.696 225.039C160.862 224.945 160.854 224.786 160.696 224.683L156.296 222.167C156.201 222.116 156.096 222.089 155.989 222.086C155.882 222.083 155.776 222.105 155.679 222.151H155.71ZM144.553 228.6L140.73 230.8C140.572 230.895 140.58 231.054 140.73 231.157L145.146 233.705C145.241 233.751 145.345 233.776 145.451 233.776C145.556 233.776 145.661 233.751 145.755 233.705L149.57 231.505C149.736 231.41 149.72 231.251 149.57 231.149L145.162 228.6C145.063 228.549 144.953 228.521 144.841 228.521C144.73 228.521 144.62 228.549 144.521 228.6H144.553ZM138.966 231.821L135.151 234.021C134.985 234.116 135.001 234.274 135.151 234.377L139.567 236.925C139.662 236.972 139.766 236.996 139.872 236.996C139.977 236.996 140.082 236.972 140.176 236.925L143.991 234.725C144.149 234.63 144.141 234.472 143.991 234.369L139.575 231.821C139.476 231.769 139.366 231.742 139.255 231.742C139.143 231.742 139.033 231.769 138.934 231.821H138.966ZM133.347 235.042L129.533 237.242C129.367 237.337 129.383 237.495 129.533 237.598L133.941 240.146C134.035 240.195 134.139 240.22 134.245 240.22C134.351 240.22 134.456 240.195 134.55 240.146L138.372 237.946C138.53 237.851 138.523 237.693 138.372 237.59L133.957 235.042C133.862 234.995 133.758 234.971 133.652 234.971C133.546 234.971 133.442 234.995 133.347 235.042ZM161.875 238.999L165.689 236.799C165.855 236.704 165.847 236.546 165.689 236.443L161.266 233.839C161.171 233.792 161.067 233.768 160.961 233.768C160.855 233.768 160.751 233.792 160.656 233.839L156.834 236.039C156.676 236.134 156.684 236.292 156.834 236.395L161.25 238.943C161.346 238.998 161.454 239.029 161.564 239.031C161.675 239.034 161.784 239.009 161.883 238.959L161.875 238.999ZM210.898 190.316L207.076 192.523C206.918 192.618 206.926 192.769 207.076 192.872L211.492 195.42C211.586 195.468 211.69 195.494 211.796 195.494C211.902 195.494 212.007 195.468 212.101 195.42L215.915 193.212C216.082 193.117 216.074 192.967 215.915 192.864L211.5 190.316C211.407 190.268 211.304 190.244 211.199 190.244C211.095 190.244 210.992 190.268 210.898 190.316ZM204.14 194.217L200.326 196.425C200.16 196.512 200.176 196.67 200.326 196.773L204.734 199.321C204.829 199.368 204.933 199.392 205.038 199.392C205.144 199.392 205.248 199.368 205.343 199.321L209.165 197.113C209.324 197.018 209.316 196.86 209.165 196.765L204.75 194.217C204.658 194.161 204.553 194.128 204.446 194.121C204.338 194.114 204.231 194.133 204.132 194.177L204.14 194.217ZM216.477 187.095L212.663 189.303C212.497 189.39 212.505 189.548 212.663 189.651L217.079 192.199C217.173 192.248 217.277 192.273 217.383 192.273C217.489 192.273 217.594 192.248 217.688 192.199L221.51 189.991C221.668 189.896 221.661 189.738 221.51 189.643L217.094 187.095C216.998 187.032 216.886 186.995 216.771 186.988C216.656 186.981 216.541 187.004 216.438 187.055L216.477 187.095ZM187.593 216.881L191.416 214.673C191.574 214.578 191.566 214.42 191.416 214.325L187 211.777C186.906 211.728 186.801 211.703 186.695 211.703C186.589 211.703 186.485 211.728 186.391 211.777L182.576 213.984C182.41 214.072 182.418 214.23 182.576 214.333L186.992 216.881C187.087 216.921 187.19 216.938 187.293 216.931C187.396 216.924 187.496 216.893 187.586 216.841L187.593 216.881ZM222.666 183.89C222.571 183.841 222.467 183.816 222.361 183.816C222.255 183.816 222.15 183.841 222.056 183.89L218.242 186.098C218.076 186.185 218.084 186.343 218.242 186.446L222.658 188.994C222.752 189.041 222.857 189.065 222.962 189.065C223.068 189.065 223.172 189.041 223.267 188.994L227.089 186.786C227.247 186.691 227.239 186.533 227.089 186.438L222.666 183.89ZM167.462 235.738L171.284 233.538C171.442 233.443 171.434 233.285 171.284 233.182L166.845 230.674C166.75 230.625 166.646 230.6 166.54 230.6C166.434 230.6 166.329 230.625 166.235 230.674L162.421 232.874C162.255 232.969 162.263 233.127 162.421 233.23L166.837 235.778C166.937 235.821 167.045 235.84 167.154 235.833C167.263 235.826 167.368 235.794 167.462 235.738ZM235.889 196.235L239.711 194.027C239.869 193.94 239.861 193.782 239.711 193.679L235.272 191.107C235.177 191.058 235.073 191.033 234.967 191.033C234.861 191.033 234.756 191.058 234.662 191.107L230.848 193.315C230.682 193.41 230.69 193.568 230.848 193.663L235.264 196.211C235.358 196.266 235.464 196.297 235.573 196.301C235.682 196.305 235.791 196.282 235.889 196.235ZM224.019 195.815L227.841 193.608C227.999 193.513 227.991 193.362 227.841 193.259L223.425 190.711C223.331 190.663 223.227 190.637 223.121 190.637C223.015 190.637 222.91 190.663 222.816 190.711L219.002 192.919C218.835 193.014 218.843 193.164 219.002 193.267L223.417 195.815C223.505 195.866 223.604 195.896 223.705 195.903C223.807 195.91 223.909 195.894 224.003 195.855L224.019 195.815ZM228.98 187.49C228.886 187.442 228.782 187.417 228.676 187.417C228.57 187.417 228.465 187.442 228.371 187.49L224.557 189.698C224.391 189.785 224.399 189.944 224.557 190.047L228.972 192.595C229.067 192.643 229.171 192.669 229.277 192.669C229.383 192.669 229.488 192.643 229.582 192.595L233.404 190.387C233.562 190.292 233.554 190.134 233.404 190.039L228.98 187.49ZM230.159 186.81L240.874 192.998C240.968 193.047 241.073 193.072 241.179 193.072C241.285 193.072 241.389 193.047 241.484 192.998L245.306 190.79C245.464 190.695 245.456 190.545 245.306 190.442L234.583 184.254C234.489 184.205 234.384 184.18 234.278 184.18C234.172 184.18 234.068 184.205 233.974 184.254L230.159 186.462C229.954 186.549 229.97 186.707 230.144 186.81H230.159ZM217.213 193.932L213.391 196.14C213.233 196.235 213.241 196.393 213.391 196.488L217.807 199.036C217.901 199.085 218.005 199.11 218.111 199.11C218.217 199.11 218.322 199.085 218.416 199.036L222.23 196.828C222.396 196.741 222.389 196.583 222.23 196.48L217.815 193.932C217.725 193.885 217.625 193.859 217.524 193.856C217.422 193.853 217.321 193.874 217.229 193.916L217.213 193.932ZM175.217 218.179L171.379 220.386C171.221 220.481 171.229 220.64 171.379 220.735L175.795 223.283C175.889 223.331 175.993 223.357 176.099 223.357C176.205 223.357 176.31 223.331 176.404 223.283L180.218 221.075C180.384 220.988 180.376 220.83 180.218 220.727L175.802 218.179C175.711 218.129 175.608 218.101 175.504 218.099C175.399 218.096 175.295 218.118 175.201 218.163L175.217 218.179ZM229.716 199.456C229.811 199.504 229.915 199.529 230.021 199.529C230.127 199.529 230.231 199.504 230.326 199.456L234.148 197.248C234.306 197.161 234.298 197.002 234.148 196.899L229.732 194.351C229.637 194.305 229.533 194.28 229.428 194.28C229.322 194.28 229.218 194.305 229.123 194.351L225.309 196.559C225.142 196.654 225.15 196.812 225.309 196.907L229.716 199.456ZM180.796 214.958L176.982 217.166C176.815 217.261 176.823 217.411 176.982 217.514L181.397 220.062C181.491 220.111 181.596 220.136 181.702 220.136C181.808 220.136 181.912 220.111 182.007 220.062L185.829 217.854C185.987 217.759 185.979 217.609 185.829 217.506L181.413 214.958C181.317 214.903 181.209 214.872 181.099 214.87C180.988 214.867 180.879 214.892 180.78 214.942L180.796 214.958ZM138.966 251.85C139.06 251.899 139.164 251.924 139.27 251.924C139.376 251.924 139.481 251.899 139.575 251.85L143.397 249.642C143.555 249.547 143.548 249.397 143.397 249.294L138.982 246.746C138.887 246.697 138.783 246.672 138.677 246.672C138.571 246.672 138.466 246.697 138.372 246.746L134.558 248.954C134.392 249.049 134.408 249.199 134.558 249.302L138.966 251.85ZM130.578 243.937L126.755 246.144C126.597 246.239 126.605 246.39 126.755 246.493L131.171 249.041C131.265 249.089 131.37 249.115 131.476 249.115C131.582 249.115 131.686 249.089 131.78 249.041L135.595 246.833C135.761 246.738 135.753 246.588 135.595 246.485L131.179 243.937C131.084 243.887 130.978 243.861 130.87 243.861C130.763 243.861 130.657 243.887 130.562 243.937H130.578ZM145.162 248.629L148.976 246.421C149.134 246.326 149.126 246.168 148.976 246.073L144.56 243.525C144.466 243.477 144.362 243.451 144.256 243.451C144.15 243.451 144.045 243.477 143.951 243.525L140.097 245.709C139.939 245.796 139.947 245.955 140.097 246.057L144.513 248.606C144.608 248.662 144.716 248.694 144.826 248.698C144.937 248.702 145.047 248.678 145.146 248.629H145.162ZM150.741 245.409L154.555 243.201C154.721 243.106 154.705 242.947 154.555 242.853L150.147 240.304C150.053 240.256 149.949 240.23 149.843 240.23C149.737 240.23 149.632 240.256 149.538 240.304L145.716 242.504C145.558 242.599 145.565 242.758 145.716 242.86L150.131 245.409C150.228 245.458 150.335 245.484 150.444 245.484C150.553 245.484 150.66 245.458 150.757 245.409H150.741ZM156.28 242.18L160.094 239.98C160.261 239.885 160.253 239.727 160.094 239.632L155.679 237.076C155.584 237.029 155.48 237.005 155.374 237.005C155.268 237.005 155.164 237.029 155.069 237.076L151.247 239.276C151.089 239.371 151.097 239.529 151.247 239.632L155.663 242.18C155.76 242.232 155.869 242.26 155.979 242.26C156.09 242.26 156.199 242.232 156.296 242.18H156.28ZM136.117 240.716L132.295 242.924C132.136 243.011 132.144 243.169 132.295 243.272L136.71 245.82C136.805 245.869 136.909 245.894 137.015 245.894C137.121 245.894 137.226 245.869 137.32 245.82L141.142 243.612C141.3 243.517 141.292 243.359 141.142 243.264L136.726 240.716C136.635 240.671 136.535 240.648 136.433 240.648C136.332 240.648 136.232 240.671 136.141 240.716H136.117ZM141.696 237.495L137.882 239.695C137.715 239.79 137.723 239.948 137.882 240.051L142.297 242.599C142.392 242.646 142.496 242.67 142.602 242.67C142.708 242.67 142.812 242.646 142.907 242.599L146.8 240.407C146.958 240.312 146.95 240.154 146.8 240.059L142.384 237.511C142.285 237.45 142.171 237.417 142.054 237.414C141.937 237.411 141.822 237.439 141.72 237.495H141.696ZM164.019 224.612L160.253 226.812C160.094 226.907 160.102 227.065 160.253 227.168L164.668 229.716C164.763 229.763 164.867 229.787 164.973 229.787C165.079 229.787 165.183 229.763 165.278 229.716L169.092 227.516C169.258 227.421 169.242 227.263 169.092 227.16L164.684 224.612C164.586 224.558 164.476 224.53 164.364 224.53C164.252 224.53 164.141 224.558 164.043 224.612H164.019ZM158.433 227.833L154.618 230.033C154.46 230.128 154.468 230.286 154.618 230.389L159.034 232.937C159.129 232.984 159.233 233.008 159.339 233.008C159.444 233.008 159.549 232.984 159.643 232.937L163.458 230.737C163.624 230.642 163.608 230.484 163.458 230.381L159.042 227.833C158.95 227.79 158.85 227.768 158.749 227.768C158.648 227.768 158.548 227.79 158.456 227.833H158.433ZM169.598 221.383L165.792 223.591C165.634 223.686 165.642 223.845 165.792 223.94L170.208 226.496C170.302 226.542 170.407 226.567 170.512 226.567C170.618 226.567 170.722 226.542 170.817 226.496L174.631 224.288C174.797 224.201 174.79 224.042 174.631 223.94L170.216 221.391C170.124 221.346 170.022 221.322 169.92 221.32C169.817 221.319 169.715 221.34 169.622 221.383H169.598ZM147.275 234.274L143.46 236.474C143.294 236.569 143.302 236.728 143.46 236.83L147.876 239.379C147.971 239.425 148.075 239.45 148.181 239.45C148.286 239.45 148.391 239.425 148.485 239.379L152.308 237.171C152.466 237.076 152.458 236.917 152.308 236.822L147.892 234.266C147.799 234.223 147.697 234.202 147.594 234.203C147.492 234.205 147.391 234.229 147.298 234.274H147.275ZM152.854 231.054L149.039 233.254C148.873 233.349 148.889 233.507 149.039 233.61L153.455 236.158C153.548 236.206 153.651 236.232 153.756 236.232C153.861 236.232 153.964 236.206 154.057 236.158L157.879 233.958C158.037 233.863 158.029 233.705 157.879 233.602L153.463 231.054C153.371 231.011 153.271 230.988 153.17 230.988C153.069 230.988 152.969 231.011 152.877 231.054H152.854ZM148.786 253.797L152.6 251.589C152.759 251.494 152.751 251.336 152.6 251.241L148.185 248.693C148.091 248.644 147.986 248.619 147.88 248.619C147.774 248.619 147.67 248.644 147.575 248.693L143.761 250.9C143.595 250.987 143.611 251.146 143.761 251.249L148.177 253.797C148.274 253.849 148.383 253.877 148.493 253.877C148.604 253.877 148.713 253.849 148.81 253.797H148.786ZM116.064 250.457L111.649 247.909C111.554 247.861 111.45 247.835 111.344 247.835C111.238 247.835 111.134 247.861 111.039 247.909L107.233 250.133C107.075 250.228 107.083 250.378 107.233 250.481L111.649 253.029C111.743 253.078 111.847 253.103 111.953 253.103C112.059 253.103 112.164 253.078 112.258 253.029L116.072 250.821C116.246 250.75 116.238 250.592 116.064 250.457ZM124.421 252.91L120.005 250.362C119.912 250.316 119.809 250.291 119.705 250.291C119.6 250.291 119.497 250.316 119.404 250.362L113.564 253.773C113.405 253.868 113.413 254.026 113.564 254.121L117.979 256.669C118.074 256.718 118.178 256.743 118.284 256.743C118.39 256.743 118.495 256.718 118.589 256.669L124.46 253.282C124.642 253.203 124.595 253.045 124.421 252.942V252.91ZM109.291 245.527L104.859 243.011C104.765 242.962 104.66 242.937 104.554 242.937C104.448 242.937 104.344 242.962 104.25 243.011L99.565 245.709C99.4067 245.804 99.4146 245.962 99.565 246.065L103.981 248.613C104.075 248.662 104.179 248.687 104.285 248.687C104.391 248.687 104.496 248.662 104.59 248.613L109.283 245.907C109.473 245.82 109.465 245.662 109.291 245.559V245.527ZM112.891 243.446C112.985 243.495 113.09 243.52 113.196 243.52C113.302 243.52 113.406 243.495 113.5 243.446L117.315 241.238C117.481 241.151 117.473 240.993 117.315 240.89L112.899 238.342C112.805 238.293 112.7 238.268 112.594 238.268C112.488 238.268 112.384 238.293 112.29 238.342L108.468 240.55C108.309 240.645 108.317 240.803 108.468 240.898L112.891 243.446ZM132.2 255.704L127.808 253.187C127.713 253.141 127.609 253.116 127.503 253.116C127.398 253.116 127.293 253.141 127.198 253.187L119.855 257.429C119.697 257.524 119.705 257.682 119.855 257.777L124.271 260.333C124.365 260.38 124.47 260.404 124.575 260.404C124.681 260.404 124.785 260.38 124.88 260.333L132.223 256.092C132.382 255.997 132.374 255.838 132.2 255.735V255.704ZM135.864 260.871L131.448 258.371C131.354 258.322 131.249 258.297 131.143 258.297C131.037 258.297 130.933 258.322 130.839 258.371L126.138 261.085C125.98 261.18 125.988 261.338 126.138 261.441L130.554 263.989C130.649 264.036 130.753 264.06 130.858 264.06C130.964 264.06 131.068 264.036 131.163 263.989L135.864 261.275C136.046 261.164 136.038 261.006 135.864 260.903V260.871ZM154.381 219.492C154.475 219.541 154.58 219.566 154.686 219.566C154.792 219.566 154.896 219.541 154.99 219.492L158.805 217.292C158.971 217.197 158.955 217.039 158.805 216.936L154.389 214.388C154.294 214.341 154.19 214.317 154.084 214.317C153.979 214.317 153.874 214.341 153.78 214.388L149.965 216.628C149.807 216.723 149.815 216.881 149.965 216.976L154.381 219.492ZM143.215 225.942C143.31 225.988 143.414 226.013 143.52 226.013C143.626 226.013 143.73 225.988 143.825 225.942L147.647 223.742C147.805 223.647 147.797 223.488 147.647 223.386L143.231 220.837C143.136 220.791 143.032 220.766 142.926 220.766C142.821 220.766 142.716 220.791 142.622 220.837L138.807 223.037C138.641 223.132 138.657 223.291 138.807 223.393L143.215 225.942ZM118.47 240.257C118.564 240.305 118.669 240.331 118.775 240.331C118.881 240.331 118.985 240.305 119.079 240.257L122.894 238.049C123.06 237.954 123.052 237.804 122.894 237.701L118.478 235.153C118.384 235.104 118.279 235.079 118.173 235.079C118.067 235.079 117.963 235.104 117.869 235.153L114.046 237.361C113.888 237.456 113.896 237.606 114.046 237.709L118.47 240.257ZM148.802 222.76C148.895 222.807 148.998 222.831 149.103 222.831C149.207 222.831 149.31 222.807 149.403 222.76L153.226 220.56C153.384 220.466 153.376 220.307 153.226 220.204L148.81 217.656C148.716 217.608 148.611 217.582 148.505 217.582C148.399 217.582 148.295 217.608 148.201 217.656L144.386 219.856C144.22 219.951 144.236 220.109 144.386 220.212L148.802 222.76ZM137.636 229.202C137.73 229.25 137.835 229.276 137.941 229.276C138.047 229.276 138.151 229.25 138.246 229.202L142.068 227.002C142.226 226.907 142.218 226.749 142.068 226.646L137.652 224.098C137.557 224.051 137.453 224.027 137.347 224.027C137.242 224.027 137.137 224.051 137.043 224.098L133.228 226.298C133.062 226.393 133.07 226.551 133.228 226.654L137.636 229.202ZM138.926 261.322C138.831 261.276 138.727 261.251 138.621 261.251C138.516 261.251 138.412 261.276 138.317 261.322L132.445 264.701C132.287 264.796 132.295 264.955 132.445 265.057L136.861 267.606C136.955 267.654 137.059 267.679 137.165 267.679C137.271 267.679 137.376 267.654 137.47 267.606L143.342 264.219C143.508 264.124 143.492 263.965 143.342 263.863L138.926 261.322ZM129.628 233.839C129.723 233.886 129.827 233.91 129.933 233.91C130.038 233.91 130.142 233.886 130.237 233.839L134.059 231.631C134.218 231.536 134.21 231.378 134.059 231.283L129.644 228.735C129.55 228.686 129.445 228.661 129.339 228.661C129.233 228.661 129.129 228.686 129.034 228.735L125.22 230.943C125.054 231.03 125.062 231.188 125.22 231.291L129.628 233.839ZM124.049 237.005C124.143 237.053 124.248 237.078 124.354 237.078C124.46 237.078 124.564 237.053 124.658 237.005L128.48 234.797C128.639 234.702 128.631 234.543 128.48 234.448L124.065 231.9C123.971 231.852 123.866 231.826 123.76 231.826C123.654 231.826 123.55 231.852 123.455 231.9L119.641 234.108C119.475 234.195 119.483 234.354 119.641 234.456L124.049 237.005ZM242.307 201.632C242.212 201.583 242.108 201.558 242.002 201.558C241.896 201.558 241.791 201.583 241.697 201.632L232.264 207.044C232.106 207.139 232.114 207.298 232.264 207.401L236.68 209.949C236.775 209.995 236.879 210.02 236.985 210.02C237.09 210.02 237.195 209.995 237.289 209.949L246.738 204.56C246.904 204.465 246.896 204.306 246.738 204.204L242.307 201.632ZM229.97 208.754C229.875 208.705 229.771 208.68 229.665 208.68C229.559 208.68 229.454 208.705 229.36 208.754L225.546 210.954C225.38 211.049 225.388 211.207 225.546 211.31L229.962 213.858C230.056 213.905 230.161 213.929 230.266 213.929C230.372 213.929 230.476 213.905 230.571 213.858L234.393 211.658C234.551 211.563 234.544 211.405 234.393 211.302L229.97 208.754ZM154.389 250.576L158.203 248.368C158.369 248.273 158.353 248.115 158.203 248.02L153.795 245.464C153.701 245.417 153.596 245.393 153.491 245.393C153.385 245.393 153.281 245.417 153.186 245.464L149.364 247.664C149.206 247.759 149.214 247.917 149.364 248.02L153.78 250.568C153.874 250.616 153.978 250.642 154.083 250.643C154.189 250.644 154.294 250.621 154.389 250.576ZM218.812 215.195C218.717 215.148 218.613 215.124 218.507 215.124C218.401 215.124 218.297 215.148 218.202 215.195L214.38 217.395C214.222 217.49 214.23 217.648 214.38 217.751L218.796 220.299C218.89 220.348 218.995 220.373 219.101 220.373C219.207 220.373 219.311 220.348 219.405 220.299L223.219 218.099C223.386 218.004 223.378 217.846 223.219 217.743L218.812 215.195ZM247.885 198.411C247.791 198.364 247.686 198.34 247.581 198.34C247.475 198.34 247.371 198.364 247.276 198.411L243.462 200.603C243.296 200.698 243.304 200.856 243.462 200.951L247.878 203.507C247.972 203.554 248.077 203.578 248.182 203.578C248.288 203.578 248.392 203.554 248.487 203.507L252.309 201.307C252.467 201.212 252.459 201.054 252.309 200.951L247.885 198.411ZM257.88 197.738L247.157 191.55C247.063 191.501 246.959 191.476 246.853 191.476C246.747 191.476 246.642 191.501 246.548 191.55L242.734 193.758C242.568 193.853 242.576 194.011 242.734 194.106L253.456 200.294C253.551 200.343 253.655 200.368 253.761 200.368C253.867 200.368 253.972 200.343 254.066 200.294L257.888 198.087C258.062 197.999 258.054 197.841 257.88 197.738ZM197.96 227.239C197.866 227.191 197.761 227.165 197.655 227.165C197.549 227.165 197.445 227.191 197.351 227.239L192.65 229.954C192.492 230.049 192.5 230.207 192.65 230.302L197.066 232.85C197.16 232.899 197.264 232.924 197.37 232.924C197.476 232.924 197.581 232.899 197.675 232.85L202.376 230.136C202.534 230.041 202.526 229.882 202.376 229.788L197.96 227.239ZM212.054 219.097C211.959 219.048 211.855 219.023 211.749 219.023C211.643 219.023 211.539 219.048 211.444 219.097L205.573 222.483C205.414 222.578 205.422 222.737 205.573 222.832L209.988 225.388C210.083 225.434 210.187 225.459 210.293 225.459C210.399 225.459 210.503 225.434 210.598 225.388L216.469 222.001C216.628 221.906 216.62 221.748 216.469 221.645L212.054 219.097ZM185.037 234.694C184.943 234.647 184.838 234.623 184.733 234.623C184.627 234.623 184.523 234.647 184.428 234.694L153.004 252.831C152.846 252.926 152.854 253.084 153.004 253.187L157.42 255.735C157.514 255.782 157.619 255.807 157.724 255.807C157.83 255.807 157.934 255.782 158.029 255.735L189.453 237.59C189.611 237.495 189.603 237.337 189.453 237.234L185.037 234.694ZM151.849 253.86C151.754 253.811 151.65 253.786 151.544 253.786C151.438 253.786 151.334 253.811 151.239 253.86L146.547 256.574C146.381 256.669 146.388 256.828 146.547 256.922L150.962 259.471C151.057 259.519 151.161 259.545 151.267 259.545C151.373 259.545 151.477 259.519 151.572 259.471L156.296 256.788C156.454 256.693 156.446 256.535 156.296 256.44L151.849 253.86ZM191.495 230.967C191.4 230.92 191.296 230.896 191.19 230.896C191.084 230.896 190.98 230.92 190.885 230.967L186.193 233.681C186.027 233.776 186.034 233.934 186.193 234.037L190.608 236.585C190.703 236.632 190.807 236.656 190.913 236.656C191.019 236.656 191.123 236.632 191.218 236.585L195.918 233.871C196.084 233.784 196.069 233.625 195.918 233.523L191.495 230.967ZM145.391 257.579C145.297 257.533 145.192 257.508 145.087 257.508C144.981 257.508 144.877 257.533 144.782 257.579L140.081 260.294C139.923 260.389 139.931 260.547 140.081 260.65L144.497 263.198C144.592 263.245 144.696 263.269 144.802 263.269C144.907 263.269 145.012 263.245 145.106 263.198L149.799 260.491C149.965 260.396 149.957 260.238 149.799 260.135L145.391 257.579ZM204.417 223.496C204.323 223.45 204.218 223.425 204.113 223.425C204.007 223.425 203.903 223.45 203.808 223.496L199.115 226.203C198.949 226.298 198.957 226.456 199.115 226.559L203.531 229.107C203.626 229.154 203.73 229.178 203.836 229.178C203.941 229.178 204.046 229.154 204.14 229.107L208.841 226.393C209.007 226.298 208.991 226.139 208.841 226.037L204.417 223.496ZM224.391 211.967C224.296 211.918 224.192 211.893 224.086 211.893C223.98 211.893 223.876 211.918 223.781 211.967L219.967 214.166C219.801 214.261 219.809 214.42 219.967 214.523L224.383 217.071C224.477 217.117 224.582 217.142 224.687 217.142C224.793 217.142 224.897 217.117 224.992 217.071L228.814 214.871C228.972 214.776 228.965 214.618 228.814 214.515L224.391 211.967ZM236.617 203.088L240.431 200.888C240.597 200.793 240.589 200.635 240.431 200.532L236.015 197.984C235.921 197.937 235.816 197.913 235.711 197.913C235.605 197.913 235.501 197.937 235.406 197.984L231.584 200.191C231.426 200.286 231.434 200.445 231.584 200.54L236 203.096C236.095 203.144 236.201 203.169 236.308 203.169C236.415 203.169 236.521 203.144 236.617 203.096V203.088ZM211.69 202.977L215.512 200.769C215.67 200.674 215.662 200.516 215.512 200.421L211.096 197.873C211.002 197.824 210.897 197.799 210.791 197.799C210.685 197.799 210.581 197.824 210.487 197.873L206.673 200.081C206.506 200.176 206.522 200.326 206.673 200.429L211.08 202.977C211.175 203.026 211.279 203.051 211.385 203.051C211.491 203.051 211.595 203.026 211.69 202.977ZM199.028 224.842L210.186 218.4C210.344 218.305 210.336 218.147 210.186 218.044L205.77 215.496C205.676 215.449 205.571 215.425 205.466 215.425C205.36 215.425 205.256 215.449 205.161 215.496L194.003 221.945C193.845 222.032 193.853 222.191 194.003 222.294L198.419 224.842C198.516 224.884 198.622 224.903 198.728 224.896C198.834 224.889 198.937 224.857 199.028 224.802V224.842ZM230.429 206.348C230.523 206.395 230.628 206.419 230.733 206.419C230.839 206.419 230.943 206.395 231.038 206.348L234.852 204.148C235.018 204.053 235.01 203.895 234.852 203.792L230.436 201.244C230.342 201.195 230.238 201.17 230.132 201.17C230.026 201.17 229.921 201.195 229.827 201.244L226.005 203.444C225.847 203.539 225.855 203.697 226.005 203.8L230.429 206.348ZM224.731 202.716L228.545 200.516C228.711 200.421 228.703 200.263 228.545 200.16L224.129 197.612C224.035 197.565 223.93 197.541 223.825 197.541C223.719 197.541 223.615 197.565 223.52 197.612L219.698 199.82C219.54 199.914 219.548 200.073 219.698 200.168L224.114 202.724C224.213 202.765 224.321 202.782 224.428 202.773C224.535 202.765 224.639 202.732 224.731 202.676V202.716ZM193.449 228.039L197.264 225.831C197.43 225.736 197.414 225.585 197.264 225.483L192.848 222.935C192.754 222.886 192.649 222.861 192.543 222.861C192.437 222.861 192.333 222.886 192.239 222.935L188.401 225.134C188.234 225.229 188.25 225.38 188.401 225.483L192.816 228.031C192.919 228.089 193.035 228.12 193.154 228.118C193.272 228.117 193.388 228.084 193.489 228.023L193.449 228.039ZM218.092 213.446C218.186 213.493 218.291 213.517 218.396 213.517C218.502 213.517 218.606 213.493 218.701 213.446L222.523 211.246C222.681 211.151 222.673 210.993 222.523 210.89L218.107 208.342C218.013 208.295 217.908 208.271 217.803 208.271C217.697 208.271 217.593 208.295 217.498 208.342L213.684 210.55C213.518 210.645 213.526 210.803 213.684 210.898L218.092 213.446ZM165.547 244.127L169.361 241.927C169.527 241.832 169.519 241.673 169.361 241.571L164.945 239.022C164.851 238.976 164.746 238.951 164.641 238.951C164.535 238.951 164.431 238.976 164.336 239.022L160.514 241.222C160.356 241.317 160.363 241.476 160.514 241.578L164.929 244.127C165.025 244.175 165.131 244.2 165.238 244.2C165.345 244.2 165.451 244.175 165.547 244.127ZM171.126 240.906L174.948 238.706C175.106 238.611 175.098 238.453 174.948 238.35L170.54 235.802C170.446 235.753 170.341 235.728 170.235 235.728C170.129 235.728 170.025 235.753 169.931 235.802L166.109 238.002C165.95 238.097 165.958 238.255 166.109 238.358L170.524 240.906C170.618 240.951 170.721 240.975 170.825 240.975C170.929 240.975 171.032 240.951 171.126 240.906ZM159.968 247.347L163.782 245.147C163.948 245.052 163.94 244.894 163.782 244.791L159.374 242.243C159.28 242.196 159.175 242.172 159.07 242.172C158.964 242.172 158.86 242.196 158.765 242.243L154.943 244.443C154.785 244.538 154.792 244.696 154.943 244.799L159.358 247.347C159.453 247.396 159.557 247.421 159.663 247.421C159.769 247.421 159.874 247.396 159.968 247.347ZM182.284 234.464L186.106 232.264C186.264 232.169 186.256 232.011 186.106 231.908L181.69 229.36C181.595 229.313 181.491 229.289 181.385 229.289C181.28 229.289 181.175 229.313 181.081 229.36L177.266 231.568C177.1 231.663 177.108 231.821 177.266 231.916L181.682 234.464C181.775 234.512 181.878 234.536 181.983 234.536C182.087 234.536 182.19 234.512 182.284 234.464ZM176.744 237.685L180.566 235.485C180.725 235.39 180.717 235.232 180.566 235.129L176.079 232.581C175.985 232.532 175.881 232.507 175.775 232.507C175.669 232.507 175.564 232.532 175.47 232.581L171.656 234.781C171.49 234.876 171.498 235.034 171.656 235.129L176.072 237.685C176.169 237.736 176.278 237.762 176.388 237.762C176.498 237.762 176.607 237.736 176.705 237.685H176.744ZM187.902 231.244L191.724 229.036C191.882 228.949 191.875 228.79 191.724 228.688L187.309 226.139C187.214 226.091 187.11 226.065 187.004 226.065C186.898 226.065 186.793 226.091 186.699 226.139L182.822 228.3C182.655 228.395 182.671 228.553 182.822 228.648L187.229 231.196C187.323 231.256 187.429 231.292 187.54 231.3C187.65 231.309 187.761 231.289 187.862 231.244H187.902ZM213.431 183.581C213.525 183.63 213.629 183.655 213.735 183.655C213.841 183.655 213.946 183.63 214.04 183.581L217.862 181.373C218.02 181.286 218.012 181.128 217.862 181.025L216.691 180.345C216.596 180.298 216.492 180.274 216.386 180.274C216.281 180.274 216.176 180.298 216.082 180.345L212.259 182.545C212.101 182.64 212.109 182.798 212.259 182.901L213.431 183.581ZM185.979 201.307C186.073 201.356 186.178 201.381 186.284 201.381C186.39 201.381 186.494 201.356 186.588 201.307L190.403 199.107C190.569 199.012 190.561 198.854 190.403 198.751L185.987 196.203C185.892 196.156 185.788 196.132 185.682 196.132C185.577 196.132 185.472 196.156 185.378 196.203L181.556 198.403C181.397 198.498 181.405 198.656 181.556 198.759L185.979 201.307ZM197.137 194.866C197.232 194.913 197.336 194.937 197.442 194.937C197.547 194.937 197.652 194.913 197.746 194.866L201.568 192.666C201.727 192.571 201.719 192.413 201.568 192.31L197.153 189.762C197.059 189.713 196.954 189.688 196.848 189.688C196.742 189.688 196.638 189.713 196.543 189.762L192.698 191.962C192.531 192.056 192.539 192.215 192.698 192.318L197.137 194.866ZM179.166 205.24C179.26 205.287 179.365 205.311 179.47 205.311C179.576 205.311 179.68 205.287 179.775 205.24L183.589 203.032C183.755 202.937 183.748 202.779 183.589 202.684L179.174 200.128C179.079 200.081 178.975 200.057 178.869 200.057C178.763 200.057 178.659 200.081 178.564 200.128L174.742 202.328C174.584 202.423 174.592 202.581 174.742 202.684L179.166 205.24ZM191.558 198.118C191.653 198.165 191.757 198.189 191.863 198.189C191.968 198.189 192.073 198.165 192.167 198.118L195.99 195.918C196.148 195.823 196.14 195.665 195.99 195.562L191.574 193.014C191.479 192.967 191.375 192.943 191.269 192.943C191.164 192.943 191.059 192.967 190.965 193.014L187.15 195.214C186.984 195.309 186.992 195.467 187.15 195.57L191.558 198.118ZM167.968 211.682C168.062 211.73 168.167 211.756 168.273 211.756C168.379 211.756 168.483 211.73 168.578 211.682L172.392 209.474C172.558 209.379 172.542 209.221 172.392 209.126L167.984 206.578C167.89 206.529 167.785 206.504 167.679 206.504C167.573 206.504 167.469 206.529 167.375 206.578L163.553 208.785C163.394 208.872 163.402 209.031 163.553 209.134L167.968 211.682ZM173.547 208.461C173.642 208.508 173.746 208.532 173.852 208.532C173.957 208.532 174.062 208.508 174.157 208.461L177.971 206.253C178.137 206.158 178.129 206 177.971 205.905L173.563 203.357C173.469 203.308 173.364 203.283 173.258 203.283C173.152 203.283 173.048 203.308 172.954 203.357L169.132 205.565C168.973 205.652 168.981 205.81 169.132 205.913L173.547 208.461ZM202.233 190.031C202.328 190.077 202.432 190.102 202.538 190.102C202.643 190.102 202.748 190.077 202.842 190.031L206.665 187.831C206.823 187.736 206.815 187.578 206.665 187.475L205.486 186.794C205.391 186.747 205.287 186.723 205.181 186.723C205.075 186.723 204.971 186.747 204.876 186.794L201.062 188.994C200.896 189.089 200.912 189.247 201.062 189.35L202.233 190.031ZM218.978 180.361C219.071 180.409 219.174 180.434 219.279 180.434C219.383 180.434 219.486 180.409 219.579 180.361L223.401 178.153C223.56 178.058 223.552 177.907 223.401 177.805L222.23 177.124C222.136 177.075 222.032 177.05 221.926 177.05C221.82 177.05 221.715 177.075 221.621 177.124L217.799 179.324C217.641 179.419 217.648 179.577 217.799 179.68L218.978 180.361ZM228.244 185.718C228.339 185.765 228.443 185.789 228.549 185.789C228.655 185.789 228.759 185.765 228.854 185.718L232.676 183.51C232.834 183.415 232.826 183.257 232.676 183.162L228.26 180.606C228.166 180.559 228.061 180.535 227.956 180.535C227.85 180.535 227.746 180.559 227.651 180.606L223.837 182.806C223.671 182.901 223.686 183.059 223.837 183.162L228.244 185.718ZM242.196 199.875L246.018 197.667C246.176 197.58 246.168 197.422 246.018 197.319L241.602 194.771C241.507 194.724 241.403 194.7 241.298 194.7C241.192 194.7 241.088 194.724 240.993 194.771L237.179 196.979C237.012 197.074 237.02 197.232 237.179 197.327L241.594 199.875C241.688 199.922 241.791 199.947 241.895 199.947C242 199.947 242.103 199.922 242.196 199.875ZM207.812 186.81C207.907 186.857 208.011 186.881 208.117 186.881C208.222 186.881 208.327 186.857 208.421 186.81L212.244 184.61C212.402 184.515 212.394 184.357 212.244 184.254L211.064 183.573C210.97 183.527 210.866 183.502 210.76 183.502C210.654 183.502 210.55 183.527 210.455 183.573L206.641 185.773C206.483 185.868 206.491 186.026 206.641 186.129L207.812 186.81ZM162.389 214.902C162.484 214.951 162.588 214.976 162.694 214.976C162.8 214.976 162.904 214.951 162.999 214.902L166.813 212.695C166.971 212.6 166.963 212.449 166.813 212.346L162.397 209.798C162.303 209.75 162.199 209.724 162.093 209.724C161.987 209.724 161.882 209.75 161.788 209.798L157.974 212.006C157.815 212.101 157.823 212.251 157.974 212.354L162.389 214.902Z" fill="#D8D8D8"/>
<path d="M185.075 249.586L226.857 225.459L252.576 240.304L210.785 264.432L185.075 249.586Z" fill="#B8B8B8"/>
<path d="M92.1961 128.006L216.721 56.1132C219.15 54.7046 221.145 55.8599 221.145 58.6692V155.11C221.105 155.823 220.898 156.517 220.54 157.135C220.183 157.754 219.685 158.28 219.087 158.671L91.4047 232.392C90.2731 233.041 89.3472 232.51 89.3472 231.205V132.936C89.4041 131.949 89.6914 130.989 90.1861 130.133C90.6808 129.277 91.3692 128.548 92.1961 128.006Z" fill="#F5F5F5"/>
<path d="M221.184 60.9799V58.6692C221.184 55.86 219.19 54.7125 216.761 56.1132L92.1961 128.006C91.3692 128.548 90.6808 129.277 90.1861 130.133C89.6914 130.989 89.4041 131.949 89.3472 132.936V137.075L221.184 60.9799Z" fill="#ECEFF1"/>
<path d="M202.604 66.242C202.16 66.5313 201.79 66.9215 201.524 67.3807C201.259 67.84 201.106 68.3554 201.077 68.8851C201.077 69.8584 201.757 70.2541 202.604 69.7634C203.047 69.4749 203.416 69.0859 203.68 68.6279C203.944 68.17 204.096 67.6562 204.123 67.1283C204.123 66.1549 203.443 65.7593 202.604 66.242Z" fill="white"/>
<path d="M208.65 62.7516C208.207 63.0418 207.838 63.4324 207.574 63.8916C207.31 64.3508 207.158 64.8657 207.13 65.3947C207.13 66.368 207.811 66.7558 208.65 66.2731C209.094 65.9837 209.464 65.5936 209.73 65.1343C209.995 64.675 210.148 64.1596 210.177 63.63C210.177 62.6567 209.497 62.261 208.65 62.7516Z" fill="white"/>
<path d="M214.704 59.2546C214.26 59.5454 213.891 59.9359 213.626 60.3948C213.361 60.8538 213.207 61.3685 213.176 61.8977C213.176 62.8711 213.865 63.2667 214.704 62.7761C215.147 62.488 215.517 62.0992 215.783 61.6413C216.048 61.1834 216.202 60.6694 216.231 60.1409C216.231 59.1676 215.542 58.7719 214.704 59.2546Z" fill="white"/>
<path d="M120.093 184.293L115.248 181.496L103.382 202.048L108.227 204.846L120.093 184.293Z" fill="#D8D8D8"/>
<path d="M120.104 184.286L117.684 182.889L105.818 203.442L108.238 204.838L120.104 184.286Z" fill="#B8B8B8"/>
<path d="M90.3736 242.181C88.1658 246.019 77.7122 239.925 79.9121 236.143L107.174 193.624C107.247 193.509 107.362 193.427 107.495 193.394C107.628 193.362 107.768 193.382 107.886 193.45L113.362 196.615C113.48 196.682 113.567 196.792 113.606 196.922C113.644 197.052 113.63 197.192 113.568 197.312L90.3736 242.181Z" fill="#695ACC"/>
<path opacity="0.1" d="M90.3728 242.181L113.559 197.312C113.622 197.192 113.635 197.052 113.597 196.922C113.559 196.792 113.471 196.682 113.353 196.615L110.861 195.175L84.2795 242.426C86.701 243.621 89.3757 243.914 90.3728 242.181Z" fill="#D8D8D8"/>
<path d="M170.535 142.085C170.535 141.76 170.535 141.444 170.488 141.127C170.44 140.811 170.488 140.502 170.417 140.193C170.345 139.885 170.417 139.782 170.353 139.576C170.298 139.038 170.219 138.508 170.132 137.994C170.092 137.764 170.053 137.527 170.005 137.297C169.958 137.068 169.918 136.862 169.871 136.648C169.736 136.063 169.594 135.493 169.427 134.947C169.34 134.686 169.261 134.425 169.174 134.156C169.157 134.117 169.144 134.078 169.135 134.037C169.04 133.784 168.953 133.538 168.858 133.301C168.763 133.064 168.636 132.747 168.509 132.51C168.383 132.272 168.335 132.122 168.232 131.932C168.175 131.789 168.106 131.652 168.027 131.52C167.948 131.354 167.861 131.188 167.766 131.03C167.671 130.871 167.726 130.951 167.702 130.919C167.679 130.887 167.536 130.634 167.449 130.492C167.362 130.349 167.33 130.31 167.275 130.223C166.869 129.584 166.414 128.978 165.914 128.41L165.661 128.126L165.447 127.904C165.36 127.809 165.265 127.722 165.17 127.627C164.921 127.366 164.657 127.12 164.379 126.891C164.244 126.772 164.102 126.662 163.959 126.559L163.524 126.242C163.298 126.076 163.063 125.923 162.82 125.783L162.63 125.664H162.59L151.377 119.191L151.314 119.152C149.162 117.952 146.734 117.338 144.271 117.371C140.599 117.371 136.452 118.574 132.06 121.106C116.977 129.811 104.743 151.003 104.743 168.428C104.743 177.133 107.782 183.226 112.696 186.091H112.744L123.965 192.556H124.012L124.147 192.628C124.357 192.752 124.574 192.865 124.796 192.968C125.065 193.102 125.342 193.221 125.587 193.332C125.833 193.443 126.086 193.53 126.339 193.609L126.743 193.727C126.884 193.782 127.03 193.824 127.178 193.854C127.324 193.898 127.472 193.935 127.621 193.965C127.727 193.996 127.836 194.02 127.945 194.036C128.135 194.076 128.341 194.115 128.539 194.139C128.583 194.146 128.629 194.146 128.673 194.139C128.911 194.181 129.148 194.213 129.386 194.234C133.453 194.661 138.185 193.514 143.25 190.594C158.341 181.889 170.575 160.689 170.575 143.272C170.535 142.908 170.535 142.496 170.535 142.085ZM152.232 129.764C152.824 131.929 153.115 134.166 153.094 136.411C153.094 151.779 141.849 171.23 128.563 178.937C126.62 180.092 124.523 180.963 122.335 181.525C121.746 179.356 121.455 177.117 121.472 174.87C121.472 159.502 132.717 140.051 146.004 132.343C147.939 131.193 150.028 130.324 152.208 129.764H152.232Z" fill="#695ACC"/>
<path opacity="0.1" d="M123.508 192.335L112.611 186.051C107.697 183.179 104.658 177.07 104.658 168.397C104.658 160.626 107.096 152.111 111.123 144.292L122.345 150.75C118.309 158.568 115.879 167.083 115.879 174.854C115.879 183.369 118.776 189.391 123.508 192.335Z" fill="#D8D8D8"/>
<path opacity="0.4" d="M170.536 142.084C170.536 141.76 170.536 141.443 170.489 141.127C170.441 140.81 170.489 140.502 170.417 140.193C170.346 139.885 170.417 139.782 170.354 139.576C170.299 139.038 170.22 138.508 170.133 137.993C170.093 137.764 170.053 137.526 170.006 137.297C169.958 137.067 169.919 136.862 169.871 136.648C169.737 136.062 169.594 135.493 169.428 134.947C169.341 134.685 169.262 134.424 169.175 134.155C169.158 134.117 169.145 134.077 169.135 134.037C169.041 133.783 168.953 133.538 168.859 133.301C168.764 133.063 168.637 132.747 168.51 132.509C168.384 132.272 168.336 132.122 168.233 131.932C168.176 131.789 168.107 131.652 168.028 131.52C167.948 131.354 167.861 131.188 167.766 131.029C167.672 130.871 167.727 130.95 167.703 130.919C167.679 130.887 167.537 130.634 167.45 130.491C167.363 130.349 167.331 130.309 167.276 130.222C166.87 129.584 166.415 128.978 165.915 128.41L165.661 128.125L165.448 127.904C165.361 127.809 165.266 127.722 165.171 127.627C164.922 127.366 164.658 127.12 164.38 126.891C164.245 126.772 164.103 126.661 163.96 126.558L163.525 126.242C163.299 126.076 163.064 125.923 162.821 125.783C157.859 122.768 150.951 123.124 143.267 127.548C128.176 136.252 115.942 157.444 115.942 174.87C115.942 183.693 119.107 189.858 124.132 192.659C124.343 192.783 124.559 192.897 124.781 192.999C125.05 193.134 125.327 193.252 125.572 193.363C125.818 193.474 126.071 193.561 126.324 193.64L126.728 193.759C126.869 193.813 127.015 193.855 127.163 193.885C127.309 193.93 127.457 193.967 127.606 193.996C127.712 194.028 127.821 194.051 127.931 194.067C128.12 194.107 128.326 194.147 128.524 194.17C128.569 194.178 128.614 194.178 128.659 194.17C128.896 194.213 129.133 194.244 129.371 194.265C133.438 194.693 138.17 193.545 143.235 190.625C158.326 181.92 170.56 160.72 170.56 143.303C170.536 142.907 170.536 142.496 170.536 142.084ZM140.465 185.853C137.078 187.808 133.818 188.837 131.033 188.837C125.802 188.837 123.396 185.268 122.328 181.525C121.739 179.356 121.448 177.117 121.465 174.87C121.465 159.502 132.71 140.051 145.997 132.343C147.939 131.191 150.036 130.322 152.225 129.763C153.261 129.507 154.323 129.371 155.39 129.36C164.039 129.36 164.965 139.125 164.965 143.327C164.997 158.663 153.752 178.169 140.465 185.853Z" fill="white"/>
<path opacity="0.1" d="M164.997 143.328C164.997 158.696 153.76 178.147 140.465 185.854C137.079 187.809 133.818 188.838 131.033 188.838C125.802 188.838 123.396 185.269 122.328 181.526C124.516 180.964 126.614 180.093 128.556 178.938C141.866 171.254 153.087 151.779 153.087 136.412C153.108 134.167 152.817 131.93 152.225 129.764C153.261 129.508 154.323 129.372 155.39 129.361C164.063 129.385 164.997 139.126 164.997 143.328Z" fill="#D8D8D8"/>
<path opacity="0.7" d="M160.249 140.645C160.249 156.013 149.012 175.464 135.718 183.172C132.331 185.126 129.07 186.155 126.285 186.155C125.731 186.157 125.177 186.112 124.631 186.021C123.562 184.7 122.782 183.168 122.344 181.526C121.755 179.357 121.464 177.118 121.481 174.871C121.481 159.503 132.726 140.052 146.013 132.344C147.955 131.192 150.052 130.323 152.241 129.764C153.277 129.508 154.339 129.372 155.406 129.361C155.963 129.359 156.519 129.404 157.068 129.495C159.806 132.716 160.249 137.884 160.249 140.645Z" fill="white"/>
<path d="M179.375 124.636V142.157C179.375 143.47 180.301 144 181.432 143.344L296.256 77.0532C296.854 76.6624 297.351 76.1365 297.709 75.5179C298.066 74.8993 298.273 74.2054 298.313 73.4921V55.9482C298.313 54.6346 297.387 54.1044 296.256 54.7612L181.432 121.052C180.832 121.445 180.332 121.975 179.975 122.598C179.617 123.221 179.412 123.919 179.375 124.636Z" fill="#E6E6E6"/>
<path d="M181.432 121.052L201.881 109.253V131.521L181.432 143.32C180.301 143.977 179.375 143.446 179.375 142.133V124.636C179.412 123.919 179.617 123.221 179.975 122.598C180.332 121.975 180.832 121.445 181.432 121.052Z" fill="#ECEFF1"/>
<path d="M195.113 118.971C193.823 118.227 192.193 118.346 190.524 119.311C188.937 120.328 187.617 121.71 186.674 123.341C185.73 124.973 185.192 126.806 185.103 128.689C185.047 129.909 185.432 131.108 186.187 132.068L183.987 135.834C183.844 136.104 183.809 136.418 183.89 136.712C183.971 137.007 184.161 137.259 184.422 137.417C184.604 137.519 184.808 137.574 185.016 137.575C185.224 137.576 185.429 137.521 185.61 137.417C185.79 137.312 185.94 137.162 186.045 136.982L188.221 133.215C188.456 133.259 188.694 133.283 188.933 133.286C189.904 133.269 190.854 132.996 191.687 132.495C193.271 131.476 194.588 130.094 195.53 128.462C196.471 126.831 197.009 124.999 197.1 123.118C197.123 121.195 196.411 119.723 195.113 118.971ZM190.524 130.445C190.246 130.745 189.874 130.94 189.471 131.001C189.067 131.062 188.654 130.984 188.301 130.78C187.947 130.576 187.673 130.258 187.523 129.878C187.374 129.498 187.357 129.079 187.477 128.689C187.569 127.224 187.999 125.802 188.734 124.532C189.469 123.262 190.487 122.179 191.711 121.369C192.185 121.067 192.731 120.895 193.293 120.87C193.525 120.862 193.755 120.916 193.958 121.029C194.256 121.283 194.484 121.609 194.623 121.976C194.761 122.342 194.805 122.738 194.749 123.126C194.658 124.589 194.229 126.012 193.496 127.282C192.763 128.552 191.745 129.634 190.524 130.445Z" fill="white"/>
</svg>
